<?xml version="1.0" standalone="no"?><!DOCTYPE svg PUBLIC "-//W3C//DTD SVG 1.1//EN" "http://www.w3.org/Graphics/SVG/1.1/DTD/svg11.dtd"><svg t="1630551118319" class="icon" viewBox="0 0 1024 1024" version="1.1" xmlns="http://www.w3.org/2000/svg" p-id="1301" xmlns:xlink="http://www.w3.org/1999/xlink" width="400" height="400"><defs><style type="text/css"></style></defs><path d="M519.8322979 726.92347279c43.02935209 0 78.37565853 35.34630643 78.37663403 78.37663405 0 43.02935209-35.34630594 134.46892132-78.37565851 134.46892179s-78.37663405-91.43859322-78.37565853-134.46892178c-0.00097552-43.0303276 34.96098306-77.99228619 78.37468301-78.37663406z" fill="#e6e6e6" p-id="1302"></path><path d="M445.29816293 780.71065141l2.30510914 2.30510914c39.95652423 39.95652423 105.27022311 39.95652423 145.22674733 0l1.53641394-1.53641394c-9.98913082-31.50478287-39.57217639-54.17152598-74.91848281-54.17152646-34.19326386-0.38434735-63.77630942 22.28239574-74.14978759 53.40283125z" fill="#e6e6e6" p-id="1303"></path><path d="M512.14827622 493.3309606c131.39609345 0 237.81740759 80.29739582 237.81740761 204.77718584l-5e-7 59.1660916c0 124.47979001-106.42229016-68.00315539-237.81838264-68.00315537s-237.81838311 193.25164059-237.81838262 68.00315537l-4.8e-7-59.16609161c0.00195103-124.47979001 106.42424071-204.77621032 237.81935863-204.77718583z" fill="#e6e6e6" p-id="1304"></path><path d="M512.14827622 58.41941332c39.95652423 0 157.90533465 135.62098787 158.28968202 381.12339364-0.38434736 159.44174859-22.66771862 237.81838312-22.66771814 237.81838263-17.28880561 89.51880695-67.61880801 90.66989848-135.23761652 90.67087399s-118.33218228-0.76869473-135.23761651-90.67087399c0 0-22.28337077-79.14532878-22.66771814-238.58707736C354.62728845 193.65800536 471.80838014 58.03604149 512.14827622 58.41941332z" fill="#e6e6e6" p-id="1305"></path><path d="M651.61176317 638.9420553c-18.4418477 92.97598314-70.69261189 94.51239708-140.61652952 94.51239755-70.69261189 0-122.94337608-0.7677192-140.61652856-94.51239755l-3.4571762-14.98369598c5.37891302 35.34630594 10.37347867 53.40283075 10.37347818 53.40283027 16.90543328 89.90217927 67.61880801 90.66989848 135.23761652 90.67087399s117.56446306-1.53641394 135.23761651-90.67087399c0 0 10.37250266-37.26706773 17.2888056-112.56989742-6.53098006 49.5622832-13.44728253 74.15076311-13.44728251 74.15076314z" fill="#e6e6e6" p-id="1306"></path><path d="M512.14827622 315.8326872c37.65043909 0 68.00217986 30.35174078 68.00315539 68.00315538 0 37.65043909-30.35174078 68.00217986-68.00315539 68.00315538-37.65043909 0-68.00217986-30.35174078-68.00315538-68.00315538s30.73608813-68.38847827 68.00315538-68.00315538z" fill="#e6e6e6" p-id="1307"></path><path d="M520.21664527 545.96607216c19.20956691 0 34.96195858 52.63413602 34.96195905 146.3797899s-15.75239168 134.85326867-35.34630594 134.46892131c-19.20956691 0-35.34630594-40.72521896-35.34630644-134.4689218 0.38434736-94.12804972 15.75239168-146.37978943 35.73065333-146.37978941z" fill="#e6e6e6" p-id="1308"></path><path d="M475.64990371 346.95214671c9.60478346-9.60478346 22.66674263-14.98369647 36.49934802-14.98369696 13.83065391 0 26.89456507 5.37891302 36.49934804 14.98369695s14.98369647 22.66674263 14.98369696 36.49934804c0 13.83065391-5.37891302 26.89456507-14.98369648 36.49934851s-22.66674263 14.98369647-36.49934851 14.98369647c-13.83065391 0-26.89456507-5.37891302-36.49934852-14.98369648s-14.98369647-22.66674263-14.98369646-36.49934851c-0.00097552-13.83162941 5.37891302-26.89456507 14.98369695-36.49934803m-11.52554524-11.52554523c-12.29423996 12.29423996-19.97826163 29.19869822-19.59391474 48.02391823 0 37.65043909 30.35174078 68.00217986 68.00315538 68.00315538 18.44087217 0 35.72967778-7.29967432 48.02391823-19.59391475s19.97826163-29.19869822 19.59391427-48.02391775c0-37.65043909-30.35174078-68.00217986-68.00315539-68.00315538-18.82521954-0.38434737-35.72967778 7.29967432-48.02391775 19.59391427z" fill="#e6e6e6" p-id="1309"></path><path d="M404.18957213 185.58963633c29.19967373 22.28337126 70.30826452 35.73065331 115.64370176 35.73065332 39.57217686-0.38434736 75.68717753-10.37347866 103.7338087-27.66228381C585.91371646 105.29224051 535.58468957 58.80473622 512.14827622 58.41941332c-22.66771862-0.38337185-70.69163685 43.79902283-107.95870409 127.17022301z" fill="#e6e6e6" p-id="1310"></path></svg>